<svg height="511pt" viewBox="-79 0 511 511.99966" width="511pt" xmlns="http://www.w3.org/2000/svg"><path d="m65.808594 151.246094c-1.605469-3.488282-3.242188-7.101563-4.90625-10.871094-13.164063-29.800781-12.644532-69.347656 19.457031-87.117188 27.472656-69.351562 156.820313-68.203124 194.59375-12.609374 29.414063 43.289062 38.917969 77.949218 15.300781 125.0625zm0 0" fill="#e18f54"/><path d="m274.953125 40.648438c-23.097656-33.996094-80.4375-47.625-127.785156-37.234376 26.5 5.660157 50.023437 18.28125 62.902343 37.234376 28.5625 42.035156 38.34375 75.9375 17.261719 121.007812l62.921875 4.054688c23.617188-47.117188 14.113282-81.773438-15.300781-125.0625zm0 0" fill="#d67a3a"/><path d="m219.667969 369.4375c0 12.945312-7.6875 23.4375-17.171875 23.4375h-50.28125c-9.480469 0-17.171875-10.492188-17.171875-23.4375v-87.066406c0-12.945313 7.6875-23.4375 17.171875-23.4375h50.28125c9.484375 0 17.171875 10.492187 17.171875 23.4375zm0 0" fill="#ffd0c6"/><path d="m353.242188 476.917969-23.265626-97.441407c-7.304687-24.070312-31.855468-54.523437-71.144531-54.523437h-39.152343l-.058594.089844c-20.152344 30.082031-64.488282 30.035156-84.574219-.089844h-39.351563c-39.289062 0-61.09375 26.585937-71.140624 54.523437l-23.269532 97.441407c-4.273437 17.90625 9.40625 35.082031 27.945313 35.082031h110.6875l36.855469-18.140625 37.085937 18.140625h111.441406c18.539063 0 32.21875-17.175781 27.941407-35.082031zm0 0" fill="#5bb7d9"/><path d="m353.242188 476.917969-23.265626-97.441407c-7.304687-24.070312-31.855468-54.523437-71.144531-54.523437h-39.152343l-.058594.089844c-.09375.140625-.199219.269531-.292969.410156 34.371094 3.964844 55.949219 31.722656 62.714844 54.023437l23.269531 97.4375c4.273438 17.90625-9.40625 35.085938-27.945312 35.085938h47.933593c18.539063 0 32.21875-17.175781 27.941407-35.082031zm0 0" fill="#489bc8"/><path d="m277.875 139.023438c-1.273438-.128907-2.542969.058593-3.78125.519531 0 0-19.746094 14.585937-65.53125-.886719-22.402344-7.570312-38.703125-39.332031-90.859375-27.296875-21.941406 5.0625-37.265625 28.183594-37.265625 28.183594-1.238281-.460938-2.507812-.648438-3.78125-.519531-8.339844.847656-13.75 14.816406-12.074219 31.199218 1.675781 16.386719 9.800781 28.972656 18.144531 28.125.230469-.023437.457032-.0625.683594-.105468 10.265625 52.761718 41.769532 90.941406 93.855469 90.941406 52.082031 0 83.589844-38.179688 93.851563-90.941406.226562.042968.457031.082031.6875.105468 8.339843.847656 16.46875-11.738281 18.144531-28.125 1.675781-16.382812-3.730469-30.351562-12.074219-31.199218zm0 0" fill="#fee2d8"/><path d="m277.875 139.023438c-1.273438-.128907-2.542969.058593-3.78125.519531 0 0-10.125 7.472656-32.675781 6.042969 7.816406 51.386718-1.257813 108.148437-46.027344 141.925781 41.320313-7.863281 66.71875-42.941407 75.730469-89.269531.226562.042968.453125.082031.683594.105468 8.34375.847656 16.46875-11.742187 18.144531-28.128906 1.675781-16.378906-3.730469-30.347656-12.074219-31.195312zm0 0" fill="#ffd0c6"/><g fill="#ff87ac"><path d="m195.078125 390.886719h-35.445313v-33.167969c0-5.601562 4.539063-10.140625 10.140626-10.140625h15.164062c5.601562 0 10.140625 4.539063 10.140625 10.140625zm0 0"/><path d="m159.613281 380.644531-19.695312 131.355469h74.875l-19.734375-131.355469zm0 0"/></g></svg>