<svg height="511pt" viewBox="-86 1 511 511.99985" width="511pt" xmlns="http://www.w3.org/2000/svg"><path d="m169.53125 6.113281c-143.515625-64.253906-176.457031 399.046875-117.636719 399.917969 52.371094.765625 185.257813.773438 237.628907.003906 58.816406-.867187 23.527343-464.175781-119.992188-399.921875" fill="#7f8194"/><path d="m191.734375.183594c84.566406 86.769531 100.203125 391.652344 54.171875 406.242187 17.214844-.097656 32.296875-.226562 43.617188-.390625 55.65625-.820312 27.046874-415.703125-97.789063-405.851562zm0 0" fill="#6e7081"/><path d="m210.707031 374.851562c0 12.457032-7.386719 22.546876-16.503906 22.546876h-48.324219c-9.113281 0-16.503906-10.089844-16.503906-22.546876v-83.757812c0-12.457031 7.390625-22.546875 16.503906-22.546875h48.324219c9.117187 0 16.503906 10.089844 16.503906 22.546875zm0 0" fill="#ffd0a4"/><path d="m174.453125 129.398438c-24.71875 9.625-55.554687 7.953124-76.820313 4.929687-9.269531 16.917969-14.683593 37.203125-14.683593 59.023437 0 59.042969 39.527343 106.90625 88.285156 106.90625 48.761719 0 88.285156-47.863281 88.285156-106.90625 0-26.992187-8.277343-51.632812-21.910156-70.445312-19.609375-1.675781-43.355469-1.214844-63.15625 6.492188zm0 0" fill="#ffe5c2"/><path d="m237.609375 122.902344c-10.4375-.890625-22.042969-1.160156-33.605469-.070313.3125.023438.636719.046875.949219.070313 13.628906 18.816406 21.910156 43.457031 21.910156 70.449218 0 52.285157-31 95.796876-71.957031 105.074219 5.292969 1.195313 10.75 1.832031 16.328125 1.832031 48.761719 0 88.285156-47.863281 88.285156-106.90625 0-26.992187-8.277343-51.632812-21.910156-70.449218zm0 0" fill="#ffd0a4"/><path d="m338.804688 478.25-22.316407-93.742188c-7.003906-23.15625-30.546875-52.449218-68.230469-52.449218h-37.550781l-29.183593 43.703125c-5.457032 8.171875-17.511719 8.15625-22.949219-.023438l-29.035157-43.679687h-37.738281c-37.679687 0-58.59375 25.574218-68.230469 52.453125l-22.316406 93.738281c-4.101562 17.226562 9.019532 33.75 26.796875 33.75h283.953125c17.78125 0 30.902344-16.523438 26.800782-33.75zm0 0" fill="#88dbc1"/><path d="m338.804688 478.25-22.316407-93.742188c-7.003906-23.15625-30.546875-52.449218-68.230469-52.449218h-37.550781l-.046875.074218c35.898438 1.53125 58.359375 29.851563 65.175782 52.375l22.3125 93.742188c4.101562 17.226562-9.019532 33.75-26.796876 33.75h40.652344c17.78125 0 30.902344-16.523438 26.800782-33.75zm0 0" fill="#60c2a3"/></svg>